# xmcd
#
# Track frame offsets:
# 150
# 19962
# 42728
# 59670
# 79644
# 98343
# 117935
# 139437
#
# Disc length: 2130 seconds
#
#
# Revision: 1
# Processed by: cddbd v1.5.2PL0 Copyright (c) Steve Scherf et al.
# Submitted via: HACP 1.20
#
DISCID=6d085008
DTITLE=PE'Z - TSU KU SHI N BOW
DYEAR=2005
DGENRE=Jazz
TTITLE0=WILD GYPSY 
TTITLE1=HARU HAYA TE
TTITLE2=POP'N ROLL
TTITLE3=NO.6
TTITLE4=PIERROT
TTITLE5=AUCTION #2
TTITLE6=NA!NA!NA!
TTITLE7=YU NU E (TSU KU SHI N BOW Ver.)
EXTD=YEAR: 2005
EXTT0=
EXTT1=
EXTT2=
EXTT3=
EXTT4=
EXTT5=
EXTT6=
EXTT7=
PLAYORDER=
